<?xml version="1.0" standalone="no"?>
<!DOCTYPE svg PUBLIC "-//W3C//DTD SVG 20010904//EN"
 "http://www.w3.org/TR/2001/REC-SVG-20010904/DTD/svg10.dtd">
<svg version="1.0" xmlns="http://www.w3.org/2000/svg"
 width="1024.000000pt" height="1024.000000pt" viewBox="0 0 1024.000000 1024.000000"
 preserveAspectRatio="xMidYMid meet">

<g transform="translate(0.000000,1024.000000) scale(0.100000,-0.100000)"
fill="#000000" stroke="none">
<path d="M0 5120 l0 -5120 5120 0 5120 0 0 5120 0 5120 -5120 0 -5120 0 0
-5120z m6963 3043 c-7 -2 -19 -2 -25 0 -7 3 -2 5 12 5 14 0 19 -2 13 -5z m-88
-12 c-22 -4 -56 -10 -75 -14 -34 -6 -34 -6 5 8 22 7 56 13 75 13 l35 -1 -40
-6z m225 -1 c16 -6 6 -7 -30 -3 -30 3 -57 7 -59 9 -8 7 64 2 89 -6z m170 -68
c75 -41 185 -148 218 -212 12 -25 17 -36 10 -26 -89 132 -155 192 -273 252
-38 19 -59 32 -45 29 14 -4 54 -23 90 -43z m-554 23 c-20 -15 -36 -19 -36 -10
0 5 38 23 50 24 3 0 -4 -6 -14 -14z m-46 -19 c0 -2 -16 -13 -35 -25 -19 -11
-35 -18 -35 -16 0 5 61 45 68 45 1 0 2 -2 2 -4z m-80 -49 c0 -1 -26 -27 -57
-57 l-58 -55 55 58 c50 53 60 62 60 54z m1647 -34 c-20 -2 -52 -2 -70 0 -17 2
0 4 38 4 39 0 53 -2 32 -4z m-124 -10 c-7 -2 -19 -2 -25 0 -7 3 -2 5 12 5 14
0 19 -2 13 -5z m290 -18 c180 -63 306 -187 375 -368 12 -33 22 -66 22 -75 0
-10 -12 16 -26 57 -24 67 -76 168 -93 181 -4 3 -17 18 -29 35 -55 71 -194 151
-310 180 -31 7 -46 14 -32 14 14 0 56 -10 93 -24z m-343 8 c-52 -17 -70 -21
-70 -17 0 8 43 23 65 23 13 -1 15 -2 5 -6z m-90 -30 c-8 -3 -36 -16 -62 -30
-27 -13 -48 -21 -48 -18 0 8 94 54 110 54 13 -1 13 -1 0 -6z m-1500 -48 c-6
-8 -27 -42 -46 -77 -37 -69 -47 -73 -13 -5 25 48 58 97 66 97 3 0 0 -7 -7 -15z
m1380 -9 c0 -2 -17 -16 -37 -31 l-38 -26 35 30 c34 31 40 35 40 27z m-305
-146 c15 -38 34 -75 43 -81 13 -8 13 -9 2 -7 -20 5 -94 158 -77 158 3 0 17
-31 32 -70z m193 43 c-14 -16 -39 -49 -57 -75 -17 -26 -36 -50 -41 -53 -6 -4
7 18 27 47 65 92 78 107 87 108 6 0 -2 -12 -16 -27z m-1362 -89 c-8 -27 -15
-43 -15 -35 -1 18 21 92 26 87 2 -2 -2 -26 -11 -52z m-19 -86 c-3 -8 -6 -5 -6
6 -1 11 2 17 5 13 3 -3 4 -12 1 -19z m556 -35 c-7 -2 -21 -2 -30 0 -10 3 -4 5
12 5 17 0 24 -2 18 -5z m221 -14 c8 -9 8 -10 -1 -5 -7 4 -32 11 -55 16 l-43 9
44 -3 c24 -3 49 -10 55 -17z m-787 -101 c-2 -24 -4 -7 -4 37 0 44 2 63 4 43 2
-21 2 -57 0 -80z m828 84 c-3 -3 -11 0 -18 7 -9 10 -8 11 6 5 10 -3 15 -9 12
-12z m69 -27 c11 -8 16 -15 10 -15 -5 0 -18 7 -28 15 -11 8 -16 15 -10 15 5 0
18 -7 28 -15z m1563 -52 c-3 -10 -5 -4 -5 12 0 17 2 24 5 18 2 -7 2 -21 0 -30z
m-1957 -16 l35 -4 -36 -1 c-27 -2 -41 4 -60 26 l-24 27 25 -22 c14 -12 41 -23
60 -26z m88 6 c-10 -2 -26 -2 -35 0 -10 3 -2 5 17 5 19 0 27 -2 18 -5z m137
-3 c13 -6 5 -7 -25 -3 -25 3 -47 7 -49 9 -9 8 55 2 74 -6z m1028 3 c-23 -2
-64 -2 -90 0 -26 2 -7 3 42 3 50 0 71 -1 48 -3z m-163 -13 c-34 -11 -60 -11
-35 0 11 5 29 8 40 8 16 0 15 -2 -5 -8z m291 -11 c27 -12 48 -23 46 -25 -2 -2
-30 8 -63 21 -32 14 -53 25 -46 25 7 0 36 -10 63 -21z m-1071 -9 c22 -11 40
-23 40 -25 0 -3 -17 3 -37 13 -21 11 -45 22 -53 25 -10 4 -11 6 -2 6 7 1 31
-8 52 -19z m133 -5 c-3 -9 -8 -14 -10 -11 -3 3 -2 9 2 15 9 16 15 13 8 -4z
m582 5 c-3 -5 -12 -10 -18 -10 -7 0 -6 4 3 10 19 12 23 12 15 0z m942 -92 c-2
-18 -4 -4 -4 32 0 36 2 50 4 33 2 -18 2 -48 0 -65z m-984 57 c-3 -9 -8 -14
-10 -11 -3 3 -2 9 2 15 9 16 15 13 8 -4z m478 -12 c13 -16 12 -17 -3 -4 -10 7
-18 15 -18 17 0 8 8 3 21 -13z m-1954 -30 c-3 -10 -5 -4 -5 12 0 17 2 24 5 18
2 -7 2 -21 0 -30z m1970 -15 c-3 -8 -6 -5 -6 6 -1 11 2 17 5 13 3 -3 4 -12 1
-19z m-278 2 c-42 -4 -92 -13 -112 -19 -21 -7 -42 -11 -49 -9 -23 8 118 36
177 36 l60 -1 -76 -7z m131 -10 c11 -8 7 -9 -15 -4 -37 8 -45 14 -19 14 10 0
26 -5 34 -10z m-1808 -25 c3 -13 1 -22 -3 -19 -9 5 -13 44 -5 44 2 0 6 -11 8
-25z m1493 7 c-3 -3 -11 0 -18 7 -9 10 -8 11 6 5 10 -3 15 -9 12 -12z m-721
-7 c11 -8 16 -15 10 -15 -5 0 -18 7 -28 15 -11 8 -16 15 -10 15 5 0 18 -7 28
-15z m-124 1 c0 -2 -8 -10 -17 -17 -16 -13 -17 -12 -4 4 13 16 21 21 21 13z
m1787 -53 c-3 -10 -5 -2 -5 17 0 19 2 27 5 18 2 -10 2 -26 0 -35z m-2418 -23
c0 -10 -3 -8 -9 5 -12 27 -12 43 0 25 5 -8 9 -22 9 -30z m591 20 c-6 -11 -13
-20 -16 -20 -2 0 0 9 6 20 6 11 13 20 16 20 2 0 0 -9 -6 -20z m228 -115 l-1
-60 -7 70 c-4 39 -10 79 -14 90 -3 11 0 7 8 -10 9 -17 15 -55 14 -90z m1592
75 c0 -11 -4 -20 -9 -20 -5 0 -7 9 -4 20 3 11 7 20 9 20 2 0 4 -9 4 -20z
m-1849 -21 c-5 -13 -10 -19 -10 -12 -1 15 10 45 15 40 3 -2 0 -15 -5 -28z
m-537 -29 c5 -17 4 -20 -2 -10 -5 8 -13 26 -16 40 -5 17 -4 20 2 10 5 -8 13
-26 16 -40z m1564 13 c-10 -2 -26 -2 -35 0 -10 3 -2 5 17 5 19 0 27 -2 18 -5z
m110 0 c-10 -2 -26 -2 -35 0 -10 3 -2 5 17 5 19 0 27 -2 18 -5z m692 -38 c-7
-20 -14 -35 -16 -33 -2 2 2 21 8 41 6 20 13 35 16 33 2 -3 -1 -21 -8 -41z
m-863 29 c-3 -3 -12 -4 -19 -1 -8 3 -5 6 6 6 11 1 17 -2 13 -5z m-980 -81 c-2
-16 -4 -3 -4 27 0 30 2 43 4 28 2 -16 2 -40 0 -55z m1292 41 c14 -12 -19 -1
-35 12 -18 14 -18 14 6 3 14 -6 27 -13 29 -15z m-399 12 c0 -2 -7 -7 -16 -10
-8 -3 -12 -2 -9 4 6 10 25 14 25 6z m-40 -20 c0 -2 -8 -10 -17 -17 -16 -13
-17 -12 -4 4 13 16 21 21 21 13z m485 -26 c10 -11 16 -20 13 -20 -3 0 -13 9
-23 20 -10 11 -16 20 -13 20 3 0 13 -9 23 -20z m471 -37 c-8 -15 -15 -25 -16
-21 0 12 23 58 27 54 3 -2 -2 -17 -11 -33z m-1556 -20 c-11 -17 -11 -17 -6 0
3 10 6 24 7 30 0 9 2 9 5 0 3 -7 0 -20 -6 -30z m593 -15 c9 -6 9 -8 0 -8 -14
0 -33 32 -32 52 0 7 5 2 10 -12 6 -13 15 -28 22 -32z m-1303 -12 c0 -12 -5 -7
-19 24 -11 24 -11 24 3 6 9 -11 16 -24 16 -30z m487 -8 c7 -16 11 -28 9 -28
-8 0 -36 58 -35 72 0 9 2 8 6 -2 3 -8 12 -27 20 -42z m981 27 c-3 -3 -9 2 -12
12 -6 14 -5 15 5 6 7 -7 10 -15 7 -18z m-53 0 c-16 -8 -37 -14 -45 -14 -8 0 1
7 20 14 46 18 64 17 25 0z m-726 -37 c-11 -21 -47 -58 -56 -58 -5 0 60 80 65
80 1 0 -3 -10 -9 -22z m658 16 c-3 -3 -12 -4 -19 -1 -8 3 -5 6 6 6 11 1 17 -2
13 -5z m379 -6 c4 -7 3 -8 -4 -4 -7 4 -12 1 -12 -10 0 -27 -40 -83 -70 -99
-38 -19 -91 -19 -116 1 -18 15 -18 15 3 5 29 -15 83 -13 111 3 30 16 62 65 62
94 0 24 14 29 26 10z m-227 -88 c0 -15 -28 48 -28 65 0 11 6 2 14 -20 8 -22
15 -42 14 -45z m710 31 c-12 -21 -32 -52 -45 -67 -14 -16 -5 1 18 39 45 73 63
91 27 28z m-2179 9 c6 -11 8 -20 6 -20 -3 0 -10 9 -16 20 -6 11 -8 20 -6 20 3
0 10 -9 16 -20z m525 -28 c-3 -3 -11 0 -18 7 -9 10 -8 11 6 5 10 -3 15 -9 12
-12z m-4495 -2 c216 -18 394 -80 495 -174 29 -28 45 -51 45 -67 0 -20 -156
-316 -181 -343 -4 -5 -57 16 -121 48 -175 88 -326 108 -426 57 -43 -22 -52
-36 -52 -85 0 -60 61 -100 250 -161 153 -49 241 -86 234 -97 -4 -6 -2 -8 4 -5
32 20 198 -92 262 -177 90 -119 122 -304 81 -465 -22 -87 -65 -176 -81 -166
-6 3 -7 0 -5 -7 8 -19 -81 -106 -149 -147 -133 -80 -275 -112 -496 -113 -170
0 -288 16 -424 58 -142 45 -316 152 -316 195 0 29 218 356 241 362 14 4 54
-12 113 -43 140 -75 262 -112 371 -113 106 -2 154 13 191 56 21 25 25 38 20
65 -11 68 -42 87 -271 162 -187 61 -350 134 -339 151 4 8 3 9 -5 5 -15 -9 -73
32 -65 46 5 7 2 8 -5 4 -19 -12 -85 65 -120 136 -75 158 -65 392 22 536 97
162 275 252 562 286 17 1 35 4 40 4 6 1 62 -3 125 -8z m4058 -112 c34 -54 59
-98 56 -98 -5 0 -103 151 -124 190 -24 48 8 4 68 -92z m-2742 58 c19 -14 19
-36 22 -894 2 -855 2 -880 -17 -903 -19 -24 -20 -24 -265 -27 -236 -3 -246 -2
-266 18 -20 20 -20 26 -20 901 0 588 3 887 10 900 10 18 24 19 263 19 203 0
257 -3 273 -14z m782 -3 c18 -16 362 -614 426 -740 14 -29 32 -53 39 -53 7 0
21 17 31 38 53 114 406 736 428 755 18 15 46 17 249 17 216 0 230 -1 249 -20
20 -20 20 -33 20 -897 l0 -877 -22 -23 c-21 -23 -25 -23 -235 -23 -200 0 -214
1 -233 20 -19 19 -20 33 -20 491 0 363 -3 470 -12 467 -7 -3 -26 -27 -42 -54
-150 -246 -361 -581 -374 -591 -20 -17 -73 -17 -95 0 -9 6 -80 116 -156 242
-205 339 -250 407 -261 400 -6 -4 -10 -171 -10 -472 0 -420 -2 -468 -17 -485
-15 -16 -36 -18 -233 -18 -171 0 -220 3 -236 14 -19 14 -19 36 -22 900 -2 876
-2 886 18 906 19 19 33 20 254 20 208 0 236 -2 254 -17z m1767 -13 c9 -17 13
-36 9 -42 -5 -7 -3 -8 6 -3 10 6 12 4 7 -9 -4 -9 -3 -15 2 -12 5 3 36 -36 69
-87 33 -51 99 -141 146 -200 48 -61 83 -113 80 -121 -3 -8 -1 -17 5 -21 7 -4
9 1 5 12 -3 10 19 -9 50 -42 l56 -60 2 -150 3 -150 147 0 147 0 62 -55 c110
-97 150 -122 186 -116 42 6 216 85 316 142 43 25 82 43 85 39 10 -9 -26 -105
-60 -158 -36 -57 -126 -140 -200 -184 -150 -91 -392 -131 -628 -105 l-65 8 3
-230 c2 -203 1 -231 -14 -247 -16 -18 -35 -19 -241 -19 -210 0 -224 1 -243 20
-20 20 -20 33 -20 898 0 778 2 880 16 900 22 31 51 28 69 -8z m2185 -50 c-17
-22 -37 -43 -43 -47 -6 -4 6 14 27 40 21 26 40 47 43 47 3 0 -10 -18 -27 -40z
m-111 -127 c-75 -79 -187 -182 -244 -225 -22 -16 -15 -8 15 18 30 27 107 99
170 161 63 62 117 113 119 113 2 0 -25 -30 -60 -67z m-659 54 c0 -2 -17 -19
-37 -38 l-38 -34 34 38 c33 34 41 42 41 34z m-1116 -73 c5 -14 4 -15 -9 -4
-17 14 -19 20 -6 20 5 0 12 -7 15 -16z m1195 -23 c-25 -34 -82 -82 -119 -100
-23 -11 -24 -11 -5 3 11 8 37 27 58 43 20 15 47 42 59 59 13 18 24 31 26 29 2
-2 -6 -17 -19 -34z m-194 -1 c-3 -5 -12 -10 -18 -10 -7 0 -6 4 3 10 19 12 23
12 15 0z m-120 -21 c50 -8 50 -8 -10 -3 -33 2 -80 9 -105 14 -44 9 -44 9 10 3
30 -3 78 -9 105 -14z m-840 -9 c10 -11 16 -20 13 -20 -3 0 -13 9 -23 20 -10
11 -16 20 -13 20 3 0 13 -9 23 -20z m922 14 c-3 -3 -12 -4 -19 -1 -8 3 -5 6 6
6 11 1 17 -2 13 -5z m-264 -36 c-5 -26 -2 -35 23 -56 23 -19 24 -22 5 -10 -35
21 -45 41 -37 71 9 38 17 34 9 -5z m-603 -48 c30 -43 18 -37 -16 7 -15 20 -23
33 -16 29 6 -3 21 -20 32 -36z m940 -20 c-8 -5 -19 -10 -25 -10 -5 0 -3 5 5
10 8 5 20 10 25 10 6 0 3 -5 -5 -10z m-141 -26 c9 -8 -95 -2 -114 6 -12 4 7 6
45 3 36 -3 67 -7 69 -9z m98 10 c-3 -3 -12 -4 -19 -1 -8 3 -5 6 6 6 11 1 17
-2 13 -5z m-806 -69 l43 -50 -43 40 c-23 22 -47 49 -53 60 -12 23 -7 18 53
-50z m762 58 c-7 -2 -21 -2 -30 0 -10 3 -4 5 12 5 17 0 24 -2 18 -5z m506 -96
c-2 -1 -13 -9 -24 -17 -19 -14 -19 -14 -6 3 7 9 18 17 24 17 6 0 8 -1 6 -3z
m-1104 -139 c22 -23 5 -9 -38 32 -42 41 -77 77 -77 81 0 7 50 -42 115 -113z
m1050 103 c-5 -10 -206 -147 -277 -190 -21 -12 -38 -18 -38 -12 0 6 6 11 13
11 6 0 77 45 157 99 158 108 154 105 145 92z m-825 -319 c0 -9 -60 42 -105 89
-43 45 -39 43 28 -17 42 -38 77 -70 77 -72z m475 89 c-16 -14 -131 -75 -120
-63 9 10 114 70 125 71 2 1 0 -3 -5 -8z m-135 -75 c0 -2 -7 -7 -16 -10 -8 -3
-12 -2 -9 4 6 10 25 14 25 6z m-76 -41 c-10 -8 -23 -15 -28 -15 -6 0 -1 7 10
15 10 8 23 15 28 15 6 0 1 -7 -10 -15z m-184 -48 c0 -6 -13 2 -30 18 -16 16
-30 30 -30 33 0 2 14 -6 30 -18 17 -12 30 -26 30 -33z m126 18 c-11 -8 -25
-15 -30 -15 -6 1 0 7 14 15 32 19 40 18 16 0z m-91 -43 c-3 -3 -11 0 -18 7 -9
10 -8 11 6 5 10 -3 15 -9 12 -12z m-4413 -1135 c124 -33 243 -91 341 -167 113
-89 115 -80 -72 -293 -52 -59 -104 -110 -116 -113 -15 -4 -42 7 -85 35 -92 60
-161 83 -261 89 -143 7 -256 -37 -353 -138 -97 -102 -130 -197 -124 -359 5
-117 22 -171 84 -258 18 -25 30 -51 27 -56 -3 -6 -2 -7 4 -4 5 3 25 -7 44 -22
81 -67 186 -101 308 -101 103 0 190 28 285 90 36 23 70 38 78 35 9 -4 40 -34
70 -68 109 -125 150 -182 116 -161 -7 4 -8 3 -4 -5 4 -6 11 -9 16 -6 13 8 50
-50 50 -80 0 -31 -76 -109 -98 -100 -7 3 -11 1 -7 -4 15 -25 -180 -120 -311
-153 -116 -29 -386 -31 -503 -5 -283 65 -523 264 -631 523 -57 138 -74 231
-74 404 1 135 4 168 27 254 29 107 112 290 127 281 5 -3 8 0 5 7 -3 7 19 42
48 78 133 163 323 274 552 319 28 5 120 8 205 7 127 -3 172 -8 252 -29z m1129
-26 l24 -19 0 -877 0 -877 -24 -19 c-21 -17 -42 -19 -256 -19 -207 0 -235 2
-254 18 l-22 17 1 877 c0 483 3 884 6 892 3 8 13 17 22 19 10 3 121 5 248 6
214 1 234 0 255 -18z m1669 -1 c19 -19 20 -33 20 -213 0 -158 -3 -197 -16
-215 -15 -22 -19 -22 -230 -22 l-214 0 0 -668 c0 -506 -3 -671 -12 -680 -9 -9
-79 -12 -255 -12 -230 0 -243 1 -253 20 -7 13 -9 233 -8 679 2 363 1 659 -2
659 -3 0 -101 0 -217 1 -201 1 -214 2 -234 22 -19 19 -20 29 -17 220 3 185 5
202 22 215 17 12 130 14 708 14 675 0 688 0 708 -20z m703 9 c19 -9 57 -80
173 -328 81 -174 153 -322 161 -330 11 -13 20 0 57 80 24 53 92 194 150 314
58 120 106 221 106 226 0 4 12 17 26 28 25 20 39 21 284 21 326 0 314 15 184
-210 -50 -86 -91 -147 -97 -143 -6 3 -7 1 -3 -6 4 -6 -82 -166 -202 -374 -115
-199 -214 -372 -221 -384 -7 -15 -11 -124 -11 -349 0 -291 -2 -329 -17 -346
-15 -16 -36 -18 -254 -18 -234 0 -238 0 -253 22 -14 19 -16 69 -16 342 l0 320
-51 90 c-28 50 -168 292 -310 537 -257 442 -284 497 -246 512 26 11 516 7 540
-4z"/>
<path d="M2795 6850 c3 -5 8 -10 11 -10 2 0 4 5 4 10 0 6 -5 10 -11 10 -5 0
-7 -4 -4 -10z"/>
<path d="M1962 6771 c-11 -7 -11 -9 0 -14 9 -3 15 1 15 9 0 8 -1 14 -1 14 -1
0 -7 -4 -14 -9z"/>
<path d="M3016 6583 c-6 -14 -5 -15 5 -6 7 7 10 15 7 18 -3 3 -9 -2 -12 -12z"/>
<path d="M2900 6390 c-9 -6 -10 -10 -3 -10 6 0 15 5 18 10 8 12 4 12 -15 0z"/>
<path d="M1752 6340 c0 -14 2 -19 5 -12 2 6 2 18 0 25 -3 6 -5 1 -5 -13z"/>
<path d="M2670 6136 c0 -2 7 -7 16 -10 8 -3 12 -2 9 4 -6 10 -25 14 -25 6z"/>
<path d="M2961 5974 c0 -11 3 -14 6 -6 3 7 2 16 -1 19 -3 4 -6 -2 -5 -13z"/>
<path d="M3046 5858 c3 -5 10 -6 15 -3 13 9 11 12 -6 12 -8 0 -12 -4 -9 -9z"/>
<path d="M3398 6863 c23 -2 59 -2 80 0 20 2 1 4 -43 4 -44 0 -61 -2 -37 -4z"/>
<path d="M3593 6863 c43 -2 110 -2 150 0 40 1 5 3 -78 3 -82 0 -115 -2 -72 -3z"/>
<path d="M3814 5086 c5 -14 2 -17 -9 -12 -9 3 -13 2 -10 -3 3 -6 14 -9 25 -8
15 1 17 4 7 17 -19 25 -20 26 -13 6z"/>
<path d="M3330 5086 c0 -2 7 -7 16 -10 8 -3 12 -2 9 4 -6 10 -25 14 -25 6z"/>
<path d="M4178 6863 c12 -2 32 -2 45 0 12 2 2 4 -23 4 -25 0 -35 -2 -22 -4z"/>
<path d="M4425 6864 c72 -8 153 -8 148 -1 -2 4 -43 6 -91 5 -48 0 -73 -3 -57
-4z"/>
<path d="M5618 6863 c12 -2 32 -2 45 0 12 2 2 4 -23 4 -25 0 -35 -2 -22 -4z"/>
<path d="M5823 6863 c37 -2 96 -2 130 0 34 2 4 3 -68 3 -71 0 -99 -1 -62 -3z"/>
<path d="M6021 6854 c0 -11 3 -14 6 -6 3 7 2 16 -1 19 -3 4 -6 -2 -5 -13z"/>
<path d="M4135 6849 c-4 -6 -5 -12 -2 -15 2 -3 7 2 10 11 7 17 1 20 -8 4z"/>
<path d="M6043 6842 c0 -11 5 -18 9 -16 4 3 9 -21 10 -53 l2 -58 3 53 c3 35
-1 59 -11 74 -15 21 -15 21 -13 0z"/>
<path d="M5550 6821 c0 -6 4 -13 10 -16 6 -3 7 1 4 9 -7 18 -14 21 -14 7z"/>
<path d="M4678 6758 c9 -9 9 -15 -1 -27 -11 -14 -10 -14 6 -2 13 10 15 17 6
27 -6 8 -14 14 -17 14 -3 0 -1 -5 6 -12z"/>
<path d="M6061 6654 c0 -11 3 -14 6 -6 3 7 2 16 -1 19 -3 4 -6 -2 -5 -13z"/>
<path d="M6062 6605 c0 -16 2 -22 5 -12 2 9 2 23 0 30 -3 6 -5 -1 -5 -18z"/>
<path d="M4123 6440 c0 -25 2 -35 4 -22 2 12 2 32 0 45 -2 12 -4 2 -4 -23z"/>
<path d="M5246 6283 c-6 -14 -5 -15 5 -6 7 7 10 15 7 18 -3 3 -9 -2 -12 -12z"/>
<path d="M6062 6190 c0 -14 2 -19 5 -12 2 6 2 18 0 25 -3 6 -5 1 -5 -13z"/>
<path d="M5041 6119 c-1 -9 7 -23 17 -30 15 -12 16 -12 6 1 -6 8 -14 22 -17
30 -5 13 -6 12 -6 -1z"/>
<path d="M5075 6049 c-4 -6 -5 -12 -2 -15 2 -3 7 2 10 11 7 17 1 20 -8 4z"/>
<path d="M4587 6043 c-10 -9 -9 -23 1 -23 5 0 9 7 9 15 0 17 -1 18 -10 8z"/>
<path d="M4756 5867 c3 -10 9 -15 12 -12 3 3 0 11 -7 18 -10 9 -11 8 -5 -6z"/>
<path d="M5582 5625 c0 -16 2 -22 5 -12 2 9 2 23 0 30 -3 6 -5 -1 -5 -18z"/>
<path d="M4123 5280 c0 -47 2 -66 4 -42 2 23 2 61 0 85 -2 23 -4 4 -4 -43z"/>
<path d="M4576 5092 c-3 -4 4 -9 15 -9 23 -2 25 3 4 10 -8 4 -16 3 -19 -1z"/>
<path d="M4566 5061 c-4 -5 3 -7 14 -4 23 6 26 13 6 13 -8 0 -17 -4 -20 -9z"/>
<path d="M6355 6830 c-8 -13 3 -30 18 -30 8 0 7 3 -2 9 -7 5 -10 14 -7 20 4 6
5 11 2 11 -3 0 -8 -4 -11 -10z"/>
<path d="M6541 6584 c0 -11 3 -14 6 -6 3 7 2 16 -1 19 -3 4 -6 -2 -5 -13z"/>
<path d="M6821 6184 c0 -11 3 -14 6 -6 3 7 2 16 -1 19 -3 4 -6 -2 -5 -13z"/>
<path d="M7490 5780 c-9 -6 -10 -10 -3 -10 6 0 15 5 18 10 8 12 4 12 -15 0z"/>
<path d="M7068 5533 c12 -2 30 -2 40 0 9 3 -1 5 -23 4 -22 0 -30 -2 -17 -4z"/>
<path d="M6822 5480 c0 -19 2 -27 5 -17 2 9 2 25 0 35 -3 9 -5 1 -5 -18z"/>
<path d="M6823 5400 c0 -25 2 -35 4 -22 2 12 2 32 0 45 -2 12 -4 2 -4 -23z"/>
<path d="M6822 5315 c0 -16 2 -22 5 -12 2 9 2 23 0 30 -3 6 -5 -1 -5 -18z"/>
<path d="M6821 5154 c0 -11 3 -14 6 -6 3 7 2 16 -1 19 -3 4 -6 -2 -5 -13z"/>
<path d="M6330 5117 c0 -2 6 -10 14 -16 11 -9 16 -9 22 1 4 7 4 10 -1 6 -4 -4
-14 -3 -22 3 -7 6 -13 9 -13 6z"/>
<path d="M2780 4816 c0 -2 7 -7 16 -10 8 -3 12 -2 9 4 -6 10 -25 14 -25 6z"/>
<path d="M3303 4448 c-2 -16 1 -18 10 -9 7 7 8 14 1 21 -6 6 -10 2 -11 -12z"/>
<path d="M1966 4442 c-3 -5 1 -9 9 -9 8 0 12 4 9 9 -3 4 -7 8 -9 8 -2 0 -6 -4
-9 -8z"/>
<path d="M2868 4353 c7 -3 16 -2 19 1 4 3 -2 6 -13 5 -11 0 -14 -3 -6 -6z"/>
<path d="M2292 3965 c0 -16 2 -22 5 -12 2 9 2 23 0 30 -3 6 -5 -1 -5 -18z"/>
<path d="M2320 3649 c0 -5 5 -7 10 -4 6 3 10 8 10 11 0 2 -4 4 -10 4 -5 0 -10
-5 -10 -11z"/>
<path d="M2340 3631 c0 -6 4 -13 10 -16 6 -3 7 1 4 9 -7 18 -14 21 -14 7z"/>
<path d="M2590 3423 c5 -2 8 -9 4 -14 -3 -5 0 -9 6 -9 15 0 7 23 -8 26 -7 1
-8 0 -2 -3z"/>
<path d="M2210 3081 c0 -6 4 -13 10 -16 6 -3 7 1 4 9 -7 18 -14 21 -14 7z"/>
<path d="M2341 3023 c-1 -17 16 -25 25 -12 4 7 3 9 -4 5 -5 -3 -13 0 -15 6 -4
9 -6 10 -6 1z"/>
<path d="M3079 3013 c-13 -16 -12 -17 4 -4 16 13 21 21 13 21 -2 0 -10 -8 -17
-17z"/>
<path d="M3645 2980 c3 -5 14 -10 23 -10 15 0 15 2 2 10 -20 13 -33 13 -25 0z"/>
<path d="M5765 4750 c3 -5 8 -10 11 -10 2 0 4 5 4 10 0 6 -5 10 -11 10 -5 0
-7 -4 -4 -10z"/>
<path d="M4353 4600 c0 -25 2 -35 4 -22 2 12 2 32 0 45 -2 12 -4 2 -4 -23z"/>
<path d="M4384 4339 c-2 -4 56 -7 129 -6 136 0 119 5 -36 9 -49 2 -91 0 -93
-3z"/>
<path d="M4693 4333 c20 -2 54 -2 75 0 20 2 3 4 -38 4 -41 0 -58 -2 -37 -4z"/>
<path d="M5418 4333 c34 -2 90 -2 125 0 34 2 6 3 -63 3 -69 0 -97 -1 -62 -3z"/>
<path d="M5628 4333 c12 -2 30 -2 40 0 9 3 -1 5 -23 4 -22 0 -30 -2 -17 -4z"/>
<path d="M5738 4333 c7 -3 16 -2 19 1 4 3 -2 6 -13 5 -11 0 -14 -3 -6 -6z"/>
<path d="M4821 4234 c0 -11 3 -14 6 -6 3 7 2 16 -1 19 -3 4 -6 -2 -5 -13z"/>
<path d="M4822 4060 c0 -14 2 -19 5 -12 2 6 2 18 0 25 -3 6 -5 1 -5 -13z"/>
<path d="M4823 3800 c0 -41 2 -58 4 -37 2 20 2 54 0 75 -2 20 -4 3 -4 -38z"/>
<path d="M5322 3790 c0 -19 2 -27 5 -17 2 9 2 25 0 35 -3 9 -5 1 -5 -18z"/>
<path d="M5323 3655 c0 -33 2 -45 4 -27 2 18 2 45 0 60 -2 15 -4 0 -4 -33z"/>
<path d="M4823 3655 c0 -22 2 -30 4 -17 2 12 2 30 0 40 -3 9 -5 -1 -4 -23z"/>
<path d="M4823 3545 c0 -33 2 -45 4 -27 2 18 2 45 0 60 -2 15 -4 0 -4 -33z"/>
<path d="M4823 3400 c0 -25 2 -35 4 -22 2 12 2 32 0 45 -2 12 -4 2 -4 -23z"/>
<path d="M5321 3324 c0 -11 3 -14 6 -6 3 7 2 16 -1 19 -3 4 -6 -2 -5 -13z"/>
<path d="M4823 3265 c0 -22 2 -30 4 -17 2 12 2 30 0 40 -3 9 -5 -1 -4 -23z"/>
<path d="M5286 2982 c-3 -5 1 -9 9 -9 8 0 12 4 9 9 -3 4 -7 8 -9 8 -2 0 -6 -4
-9 -8z"/>
<path d="M5949 4768 c-6 -20 -6 -39 0 -42 4 -3 7 6 7 20 0 20 -4 32 -7 22z"/>
<path d="M6566 4567 c3 -10 9 -15 12 -12 3 3 0 11 -7 18 -10 9 -11 8 -5 -6z"/>
<path d="M7556 4518 c3 -5 10 -6 15 -3 13 9 11 12 -6 12 -8 0 -12 -4 -9 -9z"/>
<path d="M7531 4474 c0 -11 3 -14 6 -6 3 7 2 16 -1 19 -3 4 -6 -2 -5 -13z"/>
<path d="M6996 4423 c-6 -14 -5 -15 5 -6 7 7 10 15 7 18 -3 3 -9 -2 -12 -12z"/>
<path d="M6130 4396 c0 -2 8 -10 18 -17 15 -13 16 -12 3 4 -13 16 -21 21 -21
13z"/>
<path d="M6200 4286 c0 -2 8 -10 18 -17 15 -13 16 -12 3 4 -13 16 -21 21 -21
13z"/>
<path d="M6846 4113 c-6 -14 -5 -15 5 -6 7 7 10 15 7 18 -3 3 -9 -2 -12 -12z"/>
<path d="M7155 3810 c-4 -6 -11 -8 -16 -5 -5 3 -6 -1 -3 -10 4 -9 7 -15 8 -13
1 2 8 11 15 21 7 9 11 17 8 17 -3 0 -9 -5 -12 -10z"/>
<path d="M6561 3444 c0 -11 3 -14 6 -6 3 7 2 16 -1 19 -3 4 -6 -2 -5 -13z"/>
<path d="M7072 3330 c0 -19 2 -27 5 -17 2 9 2 25 0 35 -3 9 -5 1 -5 -18z"/>
<path d="M7072 3250 c0 -19 2 -27 5 -17 2 9 2 25 0 35 -3 9 -5 1 -5 -18z"/>
<path d="M7072 3180 c0 -14 2 -19 5 -12 2 6 2 18 0 25 -3 6 -5 1 -5 -13z"/>
<path d="M7043 2995 c0 -8 4 -12 9 -9 5 3 6 10 3 15 -9 13 -12 11 -12 -6z"/>
<path d="M6708 2973 c7 -3 16 -2 19 1 4 3 -2 6 -13 5 -11 0 -14 -3 -6 -6z"/>
<path d="M6903 2973 c15 -2 39 -2 55 0 15 2 2 4 -28 4 -30 0 -43 -2 -27 -4z"/>
</g>
</svg>
